<svg xmlns="http://www.w3.org/2000/svg" version="1.0" preserveAspectRatio="xMidYMid meet" viewBox="90.92 152.33 559.08 388.59">

<g transform="translate(0.000000,676.000000) scale(0.100000,-0.100000)" fill="#2c43e7" stroke="none">
<path d="M3289 5226 c-194 -41 -365 -156 -468 -314 -98 -150 -95 -149 -211 -110 -53 17 -89 21 -200 22 -120 0 -144 -3 -215 -27 -115 -38 -199 -91 -290 -182 -59 -59 -92 -102 -123 -162 -48 -92 -82 -211 -82 -285 0 -58 -21 -112 -48 -127 -12 -6 -47 -11 -79 -11 -160 -1 -308 -63 -423 -179 -123 -124 -180 -258 -180 -426 0 -108 22 -193 75 -293 55 -103 56 -129 10 -181 -51 -56 -103 -147 -125 -220 -26 -82 -28 -271 -4 -352 63 -213 245 -380 455 -419 97 -19 112 -27 153 -81 44 -60 139 -132 221 -169 238 -108 515 -50 691 143 l56 62 -7 55 c-4 30 -10 107 -14 171 -6 100 -11 123 -36 175 -43 85 -202 242 -335 330 -98 65 -320 184 -400 214 -56 21 -80 48 -80 91 0 29 6 42 28 59 37 29 74 23 192 -31 242 -112 437 -238 578 -377 47 -45 86 -81 87 -80 1 2 11 32 23 67 31 92 78 165 154 235 72 68 177 126 226 126 21 0 38 -9 56 -31 29 -34 31 -45 16 -83 -6 -18 -30 -35 -77 -58 -85 -40 -150 -105 -191 -188 -45 -94 -61 -166 -73 -330 -16 -230 8 -362 92 -502 81 -137 227 -252 386 -306 69 -23 94 -26 218 -27 121 0 150 3 209 23 114 38 199 88 283 165 l42 39 72 -36 c39 -20 83 -36 98 -36 23 -1 24 -2 9 -14 -16 -12 -16 -14 1 -42 60 -96 179 -164 297 -172 64 -4 88 0 206 36 224 69 390 99 598 109 160 7 261 -9 382 -61 74 -32 78 -33 110 -17 85 41 183 186 214 317 8 38 22 77 31 86 8 9 47 26 86 38 85 26 119 42 169 82 119 93 150 372 66 576 -28 68 -36 78 -122 146 -112 90 -246 229 -306 318 l-45 66 -90 25 c-235 66 -413 91 -625 92 -145 0 -174 -3 -241 -24 -71 -21 -78 -22 -106 -7 -17 8 -36 29 -43 45 -10 26 -10 35 7 63 15 27 31 36 91 55 122 38 232 47 404 34 150 -12 320 -38 432 -67 32 -8 59 -14 61 -12 2 2 -14 55 -35 118 -61 182 -90 355 -90 538 0 107 16 157 55 172 40 15 54 12 84 -18 28 -27 28 -28 34 -197 13 -371 126 -669 347 -916 72 -81 187 -179 208 -179 8 0 45 31 81 69 243 250 241 645 -4 895 -74 76 -156 126 -260 161 -44 15 -88 34 -97 43 -10 10 -24 52 -33 100 -91 481 -469 857 -951 948 -126 23 -322 21 -452 -6 -119 -24 -201 -53 -310 -110 -78 -40 -102 -48 -102 -31 0 5 -20 31 -45 59 -25 27 -45 54 -45 59 0 14 -106 113 -160 150 -65 44 -135 78 -215 103 -90 28 -262 35 -356 16z" fill="#2c43e7"/>
</g>
</svg>